<mxfile host="app.diagrams.net" agent="Mozilla/5.0 (Windows NT 10.0; Win64; x64) AppleWebKit/537.36 (KHTML, like Gecko) Chrome/131.0.0.0 Safari/537.36" version="25.0.1">
  <diagram id="C5RBs43oDa-KdzZeNtuy" name="Page-1">
    <mxGraphModel dx="1969" dy="918" grid="0" gridSize="10" guides="1" tooltips="1" connect="1" arrows="1" fold="1" page="1" pageScale="1" pageWidth="827" pageHeight="1169" math="0" shadow="0">
      <root>
        <mxCell id="WIyWlLk6GJQsqaUBKTNV-0" />
        <mxCell id="WIyWlLk6GJQsqaUBKTNV-1" parent="WIyWlLk6GJQsqaUBKTNV-0" />
        <mxCell id="WhzFTNo1r284jawbhb5X-6" style="edgeStyle=orthogonalEdgeStyle;rounded=0;orthogonalLoop=1;jettySize=auto;html=1;exitX=0.5;exitY=1;exitDx=0;exitDy=0;exitPerimeter=0;entryX=0.5;entryY=0;entryDx=0;entryDy=0;strokeWidth=1;" parent="WIyWlLk6GJQsqaUBKTNV-1" source="WhzFTNo1r284jawbhb5X-0" target="WhzFTNo1r284jawbhb5X-1" edge="1">
          <mxGeometry relative="1" as="geometry" />
        </mxCell>
        <mxCell id="WhzFTNo1r284jawbhb5X-0" value="Начало" style="strokeWidth=1;html=1;shape=mxgraph.flowchart.terminator;whiteSpace=wrap;" parent="WIyWlLk6GJQsqaUBKTNV-1" vertex="1">
          <mxGeometry x="190" y="215" width="100" height="60" as="geometry" />
        </mxCell>
        <mxCell id="WhzFTNo1r284jawbhb5X-7" style="edgeStyle=orthogonalEdgeStyle;rounded=0;orthogonalLoop=1;jettySize=auto;html=1;exitX=0.5;exitY=1;exitDx=0;exitDy=0;entryX=0.5;entryY=0;entryDx=0;entryDy=0;strokeWidth=1;" parent="WIyWlLk6GJQsqaUBKTNV-1" source="WhzFTNo1r284jawbhb5X-1" target="WhzFTNo1r284jawbhb5X-5" edge="1">
          <mxGeometry relative="1" as="geometry" />
        </mxCell>
        <mxCell id="WhzFTNo1r284jawbhb5X-1" value="Задание начальных значений" style="rounded=1;whiteSpace=wrap;html=1;absoluteArcSize=1;arcSize=14;strokeWidth=1;" parent="WIyWlLk6GJQsqaUBKTNV-1" vertex="1">
          <mxGeometry x="190" y="305" width="100" height="100" as="geometry" />
        </mxCell>
        <mxCell id="WhzFTNo1r284jawbhb5X-12" style="rounded=0;orthogonalLoop=1;jettySize=auto;html=1;exitX=1;exitY=0.75;exitDx=0;exitDy=0;entryX=0.5;entryY=0;entryDx=0;entryDy=0;entryPerimeter=0;strokeWidth=1;" parent="WIyWlLk6GJQsqaUBKTNV-1" source="WhzFTNo1r284jawbhb5X-2" target="WhzFTNo1r284jawbhb5X-13" edge="1">
          <mxGeometry relative="1" as="geometry">
            <mxPoint x="561.6399999999999" y="655" as="targetPoint" />
            <Array as="points">
              <mxPoint x="562" y="614" />
            </Array>
          </mxGeometry>
        </mxCell>
        <mxCell id="WhzFTNo1r284jawbhb5X-2" value="" style="verticalLabelPosition=bottom;verticalAlign=top;html=1;shape=hexagon;perimeter=hexagonPerimeter2;arcSize=6;size=0.27;strokeWidth=1;" parent="WIyWlLk6GJQsqaUBKTNV-1" vertex="1">
          <mxGeometry x="404" y="532" width="100" height="60" as="geometry" />
        </mxCell>
        <mxCell id="WhzFTNo1r284jawbhb5X-3" value="for i:=1 to&lt;br&gt;n-1 do" style="text;html=1;align=center;verticalAlign=middle;resizable=0;points=[];autosize=1;strokeColor=none;fillColor=none;strokeWidth=1;" parent="WIyWlLk6GJQsqaUBKTNV-1" vertex="1">
          <mxGeometry x="419" y="542" width="70" height="40" as="geometry" />
        </mxCell>
        <mxCell id="WhzFTNo1r284jawbhb5X-8" style="edgeStyle=orthogonalEdgeStyle;rounded=0;orthogonalLoop=1;jettySize=auto;html=1;entryX=0.5;entryY=0;entryDx=0;entryDy=0;strokeWidth=1;" parent="WIyWlLk6GJQsqaUBKTNV-1" source="WhzFTNo1r284jawbhb5X-5" target="WhzFTNo1r284jawbhb5X-2" edge="1">
          <mxGeometry relative="1" as="geometry" />
        </mxCell>
        <mxCell id="WhzFTNo1r284jawbhb5X-5" value="Подсчёт похожих строк" style="rounded=1;whiteSpace=wrap;html=1;absoluteArcSize=1;arcSize=14;strokeWidth=1;" parent="WIyWlLk6GJQsqaUBKTNV-1" vertex="1">
          <mxGeometry x="190" y="445" width="100" height="100" as="geometry" />
        </mxCell>
        <mxCell id="WhzFTNo1r284jawbhb5X-17" style="rounded=0;orthogonalLoop=1;jettySize=auto;html=1;entryX=0.5;entryY=0;entryDx=0;entryDy=0;exitX=0.75;exitY=0.263;exitDx=0;exitDy=0;exitPerimeter=0;strokeWidth=1;" parent="WIyWlLk6GJQsqaUBKTNV-1" source="WhzFTNo1r284jawbhb5X-13" target="WhzFTNo1r284jawbhb5X-14" edge="1">
          <mxGeometry relative="1" as="geometry">
            <Array as="points">
              <mxPoint x="656" y="625" />
              <mxPoint x="687" y="625" />
            </Array>
          </mxGeometry>
        </mxCell>
        <mxCell id="WhzFTNo1r284jawbhb5X-13" value="doneLines[i]&lt;br&gt;&amp;lt;&amp;gt; i" style="strokeWidth=1;html=1;shape=mxgraph.flowchart.decision;whiteSpace=wrap;" parent="WIyWlLk6GJQsqaUBKTNV-1" vertex="1">
          <mxGeometry x="512" y="655.5" width="100" height="100" as="geometry" />
        </mxCell>
        <mxCell id="dVN0vfK1xlArJWFmYfyD-12" style="rounded=0;orthogonalLoop=1;jettySize=auto;html=1;entryX=0.5;entryY=0;entryDx=0;entryDy=0;exitX=1;exitY=0.75;exitDx=0;exitDy=0;strokeWidth=1;" edge="1" parent="WIyWlLk6GJQsqaUBKTNV-1" source="WhzFTNo1r284jawbhb5X-14" target="WhzFTNo1r284jawbhb5X-19">
          <mxGeometry relative="1" as="geometry">
            <Array as="points">
              <mxPoint x="783" y="736" />
            </Array>
          </mxGeometry>
        </mxCell>
        <mxCell id="WhzFTNo1r284jawbhb5X-14" value="" style="verticalLabelPosition=bottom;verticalAlign=top;html=1;shape=hexagon;perimeter=hexagonPerimeter2;arcSize=6;size=0.27;strokeWidth=1;" parent="WIyWlLk6GJQsqaUBKTNV-1" vertex="1">
          <mxGeometry x="638" y="675" width="100" height="60" as="geometry" />
        </mxCell>
        <mxCell id="WhzFTNo1r284jawbhb5X-15" value="for&amp;nbsp;j := i + 1&lt;br&gt;to n do" style="text;html=1;align=center;verticalAlign=middle;resizable=0;points=[];autosize=1;strokeColor=none;fillColor=none;strokeWidth=1;" parent="WIyWlLk6GJQsqaUBKTNV-1" vertex="1">
          <mxGeometry x="649" y="685" width="78" height="41" as="geometry" />
        </mxCell>
        <mxCell id="WhzFTNo1r284jawbhb5X-30" style="rounded=0;orthogonalLoop=1;jettySize=auto;html=1;entryX=0.5;entryY=0;entryDx=0;entryDy=0;exitX=0.716;exitY=0.23;exitDx=0;exitDy=0;exitPerimeter=0;strokeWidth=1;" parent="WIyWlLk6GJQsqaUBKTNV-1" source="WhzFTNo1r284jawbhb5X-27" target="WhzFTNo1r284jawbhb5X-28" edge="1">
          <mxGeometry relative="1" as="geometry">
            <Array as="points">
              <mxPoint x="887" y="826" />
              <mxPoint x="933" y="826" />
            </Array>
          </mxGeometry>
        </mxCell>
        <mxCell id="WhzFTNo1r284jawbhb5X-27" value="similar" style="strokeWidth=1;html=1;shape=mxgraph.flowchart.decision;whiteSpace=wrap;" parent="WIyWlLk6GJQsqaUBKTNV-1" vertex="1">
          <mxGeometry x="733" y="857" width="100" height="100" as="geometry" />
        </mxCell>
        <mxCell id="WhzFTNo1r284jawbhb5X-32" style="edgeStyle=orthogonalEdgeStyle;rounded=0;orthogonalLoop=1;jettySize=auto;html=1;entryX=0.5;entryY=0;entryDx=0;entryDy=0;strokeWidth=1;" parent="WIyWlLk6GJQsqaUBKTNV-1" source="WhzFTNo1r284jawbhb5X-28" target="WhzFTNo1r284jawbhb5X-29" edge="1">
          <mxGeometry relative="1" as="geometry" />
        </mxCell>
        <mxCell id="WhzFTNo1r284jawbhb5X-28" value="&lt;div&gt;similarCount := similarCount + 1&lt;/div&gt;&lt;div&gt;&lt;br&gt;&lt;span style=&quot;background-color: initial;&quot;&gt;doneLines[i] := i&lt;/span&gt;&lt;/div&gt;" style="rounded=1;whiteSpace=wrap;html=1;absoluteArcSize=1;arcSize=14;strokeWidth=1;" parent="WIyWlLk6GJQsqaUBKTNV-1" vertex="1">
          <mxGeometry x="883" y="857" width="100" height="100" as="geometry" />
        </mxCell>
        <mxCell id="WhzFTNo1r284jawbhb5X-29" value="Вывод&lt;br&gt;Строки i и j&lt;br&gt;похожи" style="shape=parallelogram;html=1;strokeWidth=1;perimeter=parallelogramPerimeter;whiteSpace=wrap;rounded=1;arcSize=12;size=0.23;" parent="WIyWlLk6GJQsqaUBKTNV-1" vertex="1">
          <mxGeometry x="883" y="990" width="100" height="60" as="geometry" />
        </mxCell>
        <mxCell id="WhzFTNo1r284jawbhb5X-35" style="rounded=0;orthogonalLoop=1;jettySize=auto;html=1;entryX=0.5;entryY=0;entryDx=0;entryDy=0;exitX=0.746;exitY=0.279;exitDx=0;exitDy=0;exitPerimeter=0;strokeWidth=1;" parent="WIyWlLk6GJQsqaUBKTNV-1" source="WhzFTNo1r284jawbhb5X-33" target="WhzFTNo1r284jawbhb5X-34" edge="1">
          <mxGeometry relative="1" as="geometry">
            <Array as="points">
              <mxPoint x="330" y="624" />
              <mxPoint x="401" y="624" />
            </Array>
          </mxGeometry>
        </mxCell>
        <mxCell id="WhzFTNo1r284jawbhb5X-38" style="rounded=0;orthogonalLoop=1;jettySize=auto;html=1;entryX=0.5;entryY=0;entryDx=0;entryDy=0;exitX=0.736;exitY=0.732;exitDx=0;exitDy=0;exitPerimeter=0;strokeWidth=1;" parent="WIyWlLk6GJQsqaUBKTNV-1" source="WhzFTNo1r284jawbhb5X-33" target="WhzFTNo1r284jawbhb5X-37" edge="1">
          <mxGeometry relative="1" as="geometry">
            <Array as="points">
              <mxPoint x="401" y="756" />
            </Array>
          </mxGeometry>
        </mxCell>
        <mxCell id="WhzFTNo1r284jawbhb5X-33" value="similarCount&lt;br&gt;= 0" style="strokeWidth=1;html=1;shape=mxgraph.flowchart.decision;whiteSpace=wrap;" parent="WIyWlLk6GJQsqaUBKTNV-1" vertex="1">
          <mxGeometry x="190" y="635" width="100" height="100" as="geometry" />
        </mxCell>
        <mxCell id="WhzFTNo1r284jawbhb5X-34" value="Вывод&lt;br&gt;Не нашлось похожих&lt;br&gt;строк" style="shape=parallelogram;html=1;strokeWidth=1;perimeter=parallelogramPerimeter;whiteSpace=wrap;rounded=1;arcSize=12;size=0.23;" parent="WIyWlLk6GJQsqaUBKTNV-1" vertex="1">
          <mxGeometry x="344" y="650.5" width="114" height="69" as="geometry" />
        </mxCell>
        <mxCell id="WhzFTNo1r284jawbhb5X-36" style="edgeStyle=orthogonalEdgeStyle;rounded=0;orthogonalLoop=1;jettySize=auto;html=1;entryX=0.5;entryY=0;entryDx=0;entryDy=0;entryPerimeter=0;strokeWidth=1;" parent="WIyWlLk6GJQsqaUBKTNV-1" source="WhzFTNo1r284jawbhb5X-5" target="WhzFTNo1r284jawbhb5X-33" edge="1">
          <mxGeometry relative="1" as="geometry" />
        </mxCell>
        <mxCell id="WhzFTNo1r284jawbhb5X-37" value="Вывод&lt;br&gt;Итоговое&lt;br&gt;кол-во&lt;br&gt;похожих &lt;br&gt;пар строк:&lt;br&gt;similarCount" style="shape=parallelogram;html=1;strokeWidth=1;perimeter=parallelogramPerimeter;whiteSpace=wrap;rounded=1;arcSize=12;size=0.23;" parent="WIyWlLk6GJQsqaUBKTNV-1" vertex="1">
          <mxGeometry x="330" y="792" width="142" height="93" as="geometry" />
        </mxCell>
        <mxCell id="dVN0vfK1xlArJWFmYfyD-3" style="edgeStyle=orthogonalEdgeStyle;rounded=0;orthogonalLoop=1;jettySize=auto;html=1;strokeWidth=1;" edge="1" parent="WIyWlLk6GJQsqaUBKTNV-1" source="dVN0vfK1xlArJWFmYfyD-1" target="dVN0vfK1xlArJWFmYfyD-2">
          <mxGeometry relative="1" as="geometry" />
        </mxCell>
        <mxCell id="dVN0vfK1xlArJWFmYfyD-1" value="AreRowsSimilar" style="strokeWidth=1;html=1;shape=mxgraph.flowchart.terminator;whiteSpace=wrap;" vertex="1" parent="WIyWlLk6GJQsqaUBKTNV-1">
          <mxGeometry x="739" y="33" width="100" height="60" as="geometry" />
        </mxCell>
        <mxCell id="dVN0vfK1xlArJWFmYfyD-7" style="edgeStyle=orthogonalEdgeStyle;rounded=0;orthogonalLoop=1;jettySize=auto;html=1;entryX=0.5;entryY=0;entryDx=0;entryDy=0;strokeWidth=1;" edge="1" parent="WIyWlLk6GJQsqaUBKTNV-1" source="dVN0vfK1xlArJWFmYfyD-2" target="dVN0vfK1xlArJWFmYfyD-4">
          <mxGeometry relative="1" as="geometry" />
        </mxCell>
        <mxCell id="dVN0vfK1xlArJWFmYfyD-2" value="Получение&lt;br&gt;matrix,&lt;br&gt;row1, row2" style="shape=parallelogram;html=1;strokeWidth=1;perimeter=parallelogramPerimeter;whiteSpace=wrap;rounded=1;arcSize=12;size=0.23;" vertex="1" parent="WIyWlLk6GJQsqaUBKTNV-1">
          <mxGeometry x="737" y="138" width="104" height="60" as="geometry" />
        </mxCell>
        <mxCell id="dVN0vfK1xlArJWFmYfyD-8" style="edgeStyle=orthogonalEdgeStyle;rounded=0;orthogonalLoop=1;jettySize=auto;html=1;entryX=0.5;entryY=0;entryDx=0;entryDy=0;strokeWidth=1;" edge="1" parent="WIyWlLk6GJQsqaUBKTNV-1" source="dVN0vfK1xlArJWFmYfyD-4" target="dVN0vfK1xlArJWFmYfyD-5">
          <mxGeometry relative="1" as="geometry" />
        </mxCell>
        <mxCell id="dVN0vfK1xlArJWFmYfyD-4" value="&lt;div&gt;set1 := [];&lt;/div&gt;&lt;div&gt;set2 := [];&lt;/div&gt;" style="rounded=1;whiteSpace=wrap;html=1;absoluteArcSize=1;arcSize=14;strokeWidth=1;" vertex="1" parent="WIyWlLk6GJQsqaUBKTNV-1">
          <mxGeometry x="739" y="228" width="100" height="100" as="geometry" />
        </mxCell>
        <mxCell id="dVN0vfK1xlArJWFmYfyD-14" style="rounded=0;orthogonalLoop=1;jettySize=auto;html=1;exitX=1;exitY=0.75;exitDx=0;exitDy=0;entryX=0.5;entryY=0;entryDx=0;entryDy=0;strokeWidth=1;" edge="1" parent="WIyWlLk6GJQsqaUBKTNV-1" source="dVN0vfK1xlArJWFmYfyD-5" target="dVN0vfK1xlArJWFmYfyD-9">
          <mxGeometry relative="1" as="geometry">
            <Array as="points">
              <mxPoint x="933" y="413" />
            </Array>
          </mxGeometry>
        </mxCell>
        <mxCell id="dVN0vfK1xlArJWFmYfyD-5" value="" style="verticalLabelPosition=bottom;verticalAlign=top;html=1;shape=hexagon;perimeter=hexagonPerimeter2;arcSize=6;size=0.27;strokeWidth=1;" vertex="1" parent="WIyWlLk6GJQsqaUBKTNV-1">
          <mxGeometry x="739" y="358" width="100" height="60" as="geometry" />
        </mxCell>
        <mxCell id="dVN0vfK1xlArJWFmYfyD-17" style="edgeStyle=orthogonalEdgeStyle;rounded=0;orthogonalLoop=1;jettySize=auto;html=1;entryX=0.5;entryY=0;entryDx=0;entryDy=0;strokeWidth=1;" edge="1" parent="WIyWlLk6GJQsqaUBKTNV-1" source="dVN0vfK1xlArJWFmYfyD-6" target="dVN0vfK1xlArJWFmYfyD-16">
          <mxGeometry relative="1" as="geometry" />
        </mxCell>
        <mxCell id="dVN0vfK1xlArJWFmYfyD-6" value="for i := 1 &lt;br&gt;to n&amp;nbsp;do" style="text;html=1;align=center;verticalAlign=middle;resizable=0;points=[];autosize=1;strokeColor=none;fillColor=none;strokeWidth=1;" vertex="1" parent="WIyWlLk6GJQsqaUBKTNV-1">
          <mxGeometry x="758" y="367.5" width="62" height="41" as="geometry" />
        </mxCell>
        <mxCell id="dVN0vfK1xlArJWFmYfyD-15" style="edgeStyle=orthogonalEdgeStyle;rounded=0;orthogonalLoop=1;jettySize=auto;html=1;entryX=0.5;entryY=0;entryDx=0;entryDy=0;strokeWidth=1;" edge="1" parent="WIyWlLk6GJQsqaUBKTNV-1" source="dVN0vfK1xlArJWFmYfyD-9" target="dVN0vfK1xlArJWFmYfyD-10">
          <mxGeometry relative="1" as="geometry" />
        </mxCell>
        <mxCell id="dVN0vfK1xlArJWFmYfyD-9" value="&lt;div&gt;Добавить в множество set1 элемент martix[row1, i]&lt;/div&gt;" style="rounded=1;whiteSpace=wrap;html=1;absoluteArcSize=1;arcSize=14;strokeWidth=1;" vertex="1" parent="WIyWlLk6GJQsqaUBKTNV-1">
          <mxGeometry x="883" y="445" width="100" height="100" as="geometry" />
        </mxCell>
        <mxCell id="dVN0vfK1xlArJWFmYfyD-10" value="&lt;div&gt;Добавить в множество set2 элемент martix[row2, i]&lt;/div&gt;" style="rounded=1;whiteSpace=wrap;html=1;absoluteArcSize=1;arcSize=14;strokeWidth=1;" vertex="1" parent="WIyWlLk6GJQsqaUBKTNV-1">
          <mxGeometry x="883" y="573" width="100" height="100" as="geometry" />
        </mxCell>
        <mxCell id="WhzFTNo1r284jawbhb5X-19" value="" style="verticalLabelPosition=bottom;verticalAlign=top;html=1;shape=process;whiteSpace=wrap;rounded=1;size=0.14;arcSize=6;strokeWidth=1;container=0;" parent="WIyWlLk6GJQsqaUBKTNV-1" vertex="1">
          <mxGeometry x="733" y="767" width="100" height="60" as="geometry" />
        </mxCell>
        <mxCell id="WhzFTNo1r284jawbhb5X-21" value="similar :=&lt;br&gt;AreRows&lt;br&gt;Similar&lt;br&gt;(X, i, j)" style="text;html=1;align=center;verticalAlign=middle;resizable=0;points=[];autosize=1;strokeColor=none;fillColor=none;strokeWidth=1;container=0;" parent="WIyWlLk6GJQsqaUBKTNV-1" vertex="1">
          <mxGeometry x="749.5" y="762" width="67" height="70" as="geometry" />
        </mxCell>
        <mxCell id="dVN0vfK1xlArJWFmYfyD-13" style="edgeStyle=orthogonalEdgeStyle;rounded=0;orthogonalLoop=1;jettySize=auto;html=1;entryX=0.5;entryY=0;entryDx=0;entryDy=0;entryPerimeter=0;strokeWidth=1;" edge="1" parent="WIyWlLk6GJQsqaUBKTNV-1" source="WhzFTNo1r284jawbhb5X-19" target="WhzFTNo1r284jawbhb5X-27">
          <mxGeometry relative="1" as="geometry" />
        </mxCell>
        <mxCell id="dVN0vfK1xlArJWFmYfyD-16" value="Возврат&lt;br&gt;set1 = set2" style="shape=parallelogram;html=1;strokeWidth=1;perimeter=parallelogramPerimeter;whiteSpace=wrap;rounded=1;arcSize=12;size=0.23;" vertex="1" parent="WIyWlLk6GJQsqaUBKTNV-1">
          <mxGeometry x="737" y="483" width="104" height="60" as="geometry" />
        </mxCell>
        <mxCell id="dVN0vfK1xlArJWFmYfyD-18" value="Конец" style="strokeWidth=1;html=1;shape=mxgraph.flowchart.terminator;whiteSpace=wrap;" vertex="1" parent="WIyWlLk6GJQsqaUBKTNV-1">
          <mxGeometry x="739" y="585" width="100" height="60" as="geometry" />
        </mxCell>
        <mxCell id="dVN0vfK1xlArJWFmYfyD-19" style="edgeStyle=orthogonalEdgeStyle;rounded=0;orthogonalLoop=1;jettySize=auto;html=1;entryX=0.5;entryY=0;entryDx=0;entryDy=0;entryPerimeter=0;strokeWidth=1;" edge="1" parent="WIyWlLk6GJQsqaUBKTNV-1" source="dVN0vfK1xlArJWFmYfyD-16" target="dVN0vfK1xlArJWFmYfyD-18">
          <mxGeometry relative="1" as="geometry" />
        </mxCell>
        <mxCell id="dVN0vfK1xlArJWFmYfyD-20" value="Конец" style="strokeWidth=1;html=1;shape=mxgraph.flowchart.terminator;whiteSpace=wrap;" vertex="1" parent="WIyWlLk6GJQsqaUBKTNV-1">
          <mxGeometry x="190" y="808.5" width="100" height="60" as="geometry" />
        </mxCell>
        <mxCell id="dVN0vfK1xlArJWFmYfyD-21" style="edgeStyle=orthogonalEdgeStyle;rounded=0;orthogonalLoop=1;jettySize=auto;html=1;entryX=0.5;entryY=0;entryDx=0;entryDy=0;entryPerimeter=0;strokeWidth=1;" edge="1" parent="WIyWlLk6GJQsqaUBKTNV-1" source="WhzFTNo1r284jawbhb5X-33" target="dVN0vfK1xlArJWFmYfyD-20">
          <mxGeometry relative="1" as="geometry" />
        </mxCell>
        <mxCell id="dVN0vfK1xlArJWFmYfyD-25" style="edgeStyle=orthogonalEdgeStyle;rounded=0;orthogonalLoop=1;jettySize=auto;html=1;entryX=0.5;entryY=0;entryDx=0;entryDy=0;" edge="1" parent="WIyWlLk6GJQsqaUBKTNV-1" source="dVN0vfK1xlArJWFmYfyD-22" target="dVN0vfK1xlArJWFmYfyD-23">
          <mxGeometry relative="1" as="geometry" />
        </mxCell>
        <mxCell id="dVN0vfK1xlArJWFmYfyD-22" value="Задание начальных значений" style="strokeWidth=1;html=1;shape=mxgraph.flowchart.terminator;whiteSpace=wrap;" vertex="1" parent="WIyWlLk6GJQsqaUBKTNV-1">
          <mxGeometry x="493" y="44" width="100" height="60" as="geometry" />
        </mxCell>
        <mxCell id="dVN0vfK1xlArJWFmYfyD-26" style="edgeStyle=orthogonalEdgeStyle;rounded=0;orthogonalLoop=1;jettySize=auto;html=1;entryX=0.5;entryY=0;entryDx=0;entryDy=0;" edge="1" parent="WIyWlLk6GJQsqaUBKTNV-1" source="dVN0vfK1xlArJWFmYfyD-23" target="dVN0vfK1xlArJWFmYfyD-24">
          <mxGeometry relative="1" as="geometry" />
        </mxCell>
        <mxCell id="dVN0vfK1xlArJWFmYfyD-23" value="&lt;div&gt;Матрица&lt;br&gt;n = 5&lt;/div&gt;" style="rounded=1;whiteSpace=wrap;html=1;absoluteArcSize=1;arcSize=14;strokeWidth=1;" vertex="1" parent="WIyWlLk6GJQsqaUBKTNV-1">
          <mxGeometry x="493" y="139" width="100" height="100" as="geometry" />
        </mxCell>
        <mxCell id="dVN0vfK1xlArJWFmYfyD-24" value="similarCount := 0" style="rounded=1;whiteSpace=wrap;html=1;absoluteArcSize=1;arcSize=14;strokeWidth=1;" vertex="1" parent="WIyWlLk6GJQsqaUBKTNV-1">
          <mxGeometry x="493" y="274" width="100" height="100" as="geometry" />
        </mxCell>
        <mxCell id="dVN0vfK1xlArJWFmYfyD-27" value="Конец" style="strokeWidth=1;html=1;shape=mxgraph.flowchart.terminator;whiteSpace=wrap;" vertex="1" parent="WIyWlLk6GJQsqaUBKTNV-1">
          <mxGeometry x="493" y="409" width="100" height="60" as="geometry" />
        </mxCell>
        <mxCell id="dVN0vfK1xlArJWFmYfyD-28" style="edgeStyle=orthogonalEdgeStyle;rounded=0;orthogonalLoop=1;jettySize=auto;html=1;entryX=0.5;entryY=0;entryDx=0;entryDy=0;entryPerimeter=0;" edge="1" parent="WIyWlLk6GJQsqaUBKTNV-1" source="dVN0vfK1xlArJWFmYfyD-24" target="dVN0vfK1xlArJWFmYfyD-27">
          <mxGeometry relative="1" as="geometry" />
        </mxCell>
      </root>
    </mxGraphModel>
  </diagram>
</mxfile>
